<svg width="20" height="20" viewBox="0 0 20 20" fill="none" xmlns="http://www.w3.org/2000/svg">
<path d="M10.0442 18.2478C10.3658 17.9262 10.3658 17.4048 10.0441 17.0831L2.95362 9.99262L10.0344 2.91179C10.356 2.5902 10.356 2.06871 10.0343 1.74703C9.71261 1.42535 9.19113 1.42528 8.86953 1.74688L1.19864 9.41777C1.04241 9.56841 0.952964 9.77531 0.95023 9.99235C0.950097 10.2145 1.03973 10.4274 1.19879 10.5825L8.8717 18.2554C9.02602 18.4141 9.23836 18.503 9.45965 18.5015C9.68095 18.5001 9.89207 18.4085 10.0442 18.2478Z" fill="#FEFCF6"/>
<path d="M18.8566 10.5849C19.0128 10.4342 19.1023 10.2273 19.105 10.0103C19.1069 9.78932 19.02 9.57684 18.8637 9.42058C18.7075 9.26431 18.495 9.17738 18.274 9.1793L1.78099 9.17713C1.47999 9.16646 1.19722 9.32094 1.04361 9.57996C0.889995 9.83898 0.890038 10.1612 1.04372 10.4203C1.1974 10.6794 1.48021 10.8339 1.7812 10.8233L18.282 10.8333C18.4983 10.827 18.7039 10.7381 18.8566 10.5849Z" fill="#FEFCF6"/>
<path d="M10.6267 18.8303C11.2699 18.1871 11.2697 17.1441 10.6264 16.5008L4.11838 9.99277L10.6169 3.49425C11.2601 2.85106 11.26 1.80809 10.6166 1.16473C9.97323 0.521362 8.93026 0.521224 8.28707 1.16442L0.608415 8.84307C0.291208 9.14746 0.111918 9.56809 0.111976 10.0078C0.112034 10.4475 0.291435 10.8681 0.608721 11.1726L8.28163 18.8455C8.59327 19.1572 9.01678 19.3311 9.45747 19.3282C9.89817 19.3253 10.3193 19.146 10.6267 18.8303Z" fill="#FEFCF6"/>
<path d="M19.439 11.1673C19.7505 10.8628 19.9267 10.446 19.9281 10.0104C19.9298 9.57118 19.7561 9.14941 19.4455 8.8388C19.1349 8.52819 18.7131 8.35446 18.2739 8.3562L1.78088 8.35403C1.17889 8.3327 0.61335 8.64166 0.306123 9.1597C-0.00110308 9.67774 -0.00101852 10.3222 0.306345 10.8404C0.613708 11.3585 1.17933 11.6676 1.78131 11.6464L18.2821 11.6564C18.7168 11.6502 19.1318 11.4748 19.439 11.1673Z" fill="#FEFCF6"/>
</svg>
