<svg width="12" height="12" viewBox="0 0 12 12" fill="none" xmlns="http://www.w3.org/2000/svg">
<path d="M1.0513 5.97346C1.24426 5.7805 1.55715 5.78054 1.75016 5.97355L6.00443 10.2278L10.2529 5.97933C10.4459 5.78638 10.7588 5.78642 10.9518 5.97943C11.1448 6.17244 11.1448 6.48532 10.9519 6.67828L6.34934 11.2808C6.25895 11.3746 6.13481 11.4282 6.00459 11.4299C5.87128 11.4299 5.74358 11.3762 5.65048 11.2807L1.04673 6.67698C0.951536 6.58439 0.898208 6.45699 0.899069 6.32421C0.899931 6.19143 0.954909 6.06476 1.0513 5.97346Z" fill="#212125"/>
<path d="M5.64908 0.686047C5.73947 0.592312 5.86361 0.538644 5.99383 0.537003C6.12641 0.535848 6.2539 0.58801 6.34765 0.681768C6.44141 0.775526 6.49357 0.903016 6.49242 1.03559L6.49372 10.9314C6.50012 11.112 6.40743 11.2817 6.25202 11.3738C6.09661 11.466 5.90326 11.466 5.74782 11.3738C5.59239 11.2816 5.49965 11.1119 5.506 10.9313L5.50004 1.0308C5.50378 0.901032 5.55712 0.777651 5.64908 0.686047Z" fill="#212125"/>
<path d="M0.701825 5.62399C1.08774 5.23807 1.71352 5.23815 2.09954 5.62417L6.00434 9.52897L9.90345 5.62986C10.2894 5.24394 10.9151 5.24402 11.3012 5.63004C11.6872 6.01606 11.6873 6.64184 11.3013 7.02776L6.69415 11.635C6.51153 11.8253 6.25915 11.9328 5.99534 11.9328C5.73153 11.9328 5.47912 11.8251 5.29644 11.6348L0.692692 7.03102C0.505677 6.84404 0.401366 6.58993 0.403082 6.32552C0.404798 6.0611 0.512398 5.80843 0.701825 5.62399Z" fill="#212125"/>
<path d="M5.29961 0.336571C5.48229 0.149671 5.73238 0.0439555 5.99377 0.0431433C6.25729 0.0420974 6.51035 0.146338 6.69672 0.332704C6.88308 0.51907 6.98732 0.772127 6.98628 1.03565L6.98758 10.9315C7.00038 11.2927 6.815 11.632 6.50418 11.8163C6.19336 12.0007 5.80665 12.0006 5.49578 11.8162C5.18491 11.6318 4.99944 11.2924 5.01215 10.9312L5.00618 1.03073C5.00986 0.76994 5.11513 0.520899 5.29961 0.336571Z" fill="#212125"/>
</svg>
