<svg width="7" height="7" viewBox="0 0 7 7" fill="none" xmlns="http://www.w3.org/2000/svg">
<path d="M5.82035 5.84537C5.63843 5.84537 5.49095 5.69786 5.49095 5.51589V1.50492L1.48544 1.50492C1.30351 1.50492 1.15603 1.3574 1.15603 1.17543C1.15603 0.99346 1.30351 0.845943 1.48544 0.845943L5.82475 0.845943C5.91154 0.844366 5.99536 0.877586 6.05752 0.9382C6.1204 1.001 6.15525 1.08656 6.15415 1.17543V5.51589C6.15538 5.60441 6.12046 5.68961 6.05746 5.75179C5.99446 5.81398 5.90883 5.84778 5.82035 5.84537Z" fill="#212125"/>
<path d="M1.16043 6.17047C1.07363 6.17205 0.98981 6.13883 0.927649 6.07821C0.86461 6.01626 0.829101 5.93157 0.829101 5.84318C0.829101 5.75478 0.86461 5.67009 0.927649 5.60814L5.59197 0.942593C5.67409 0.854443 5.79776 0.818157 5.91447 0.847971C6.03118 0.877784 6.12232 0.968943 6.15212 1.08568C6.18193 1.20243 6.14565 1.32613 6.05752 1.40827L1.3932 6.07821C1.33027 6.13762 1.24696 6.17064 1.16043 6.17047Z" fill="#212125"/>
<path d="M5.82035 6.17486C5.45651 6.17486 5.16155 5.87983 5.16155 5.51589V1.83441L1.48544 1.83441C1.12159 1.83441 0.826633 1.53937 0.826633 1.17543C0.826633 0.811489 1.12159 0.516455 1.48544 0.516455L5.82914 0.516455C6.00495 0.512828 6.17463 0.581091 6.29898 0.705468C6.42332 0.829845 6.49157 0.999573 6.48794 1.17543V5.51589C6.48796 5.69219 6.41734 5.86115 6.29189 5.98499C6.16643 6.10883 5.9966 6.17721 5.82035 6.17486Z" fill="#212125"/>
<path d="M1.16043 6.49996C0.986202 6.50195 0.818474 6.43389 0.694873 6.31105C0.570153 6.18732 0.5 6.01889 0.5 5.84318C0.5 5.66747 0.570153 5.49904 0.694873 5.37531L5.35919 0.709755C5.52343 0.533454 5.77077 0.460883 6.00419 0.52051C6.23762 0.580137 6.41988 0.762454 6.4795 0.995936C6.53911 1.22942 6.46656 1.47683 6.2903 1.64111L1.62598 6.31105C1.50131 6.43225 1.33428 6.50003 1.16043 6.49996Z" fill="#212125"/>
</svg>
