<svg width="12" height="12" viewBox="0 0 12 12" fill="none" xmlns="http://www.w3.org/2000/svg">
<path d="M1.0513 6.02654C1.24426 6.2195 1.55715 6.21946 1.75016 6.02645L6.00443 1.77217L10.2529 6.02067C10.4459 6.21362 10.7588 6.21358 10.9518 6.02057C11.1448 5.82756 11.1448 5.51468 10.9519 5.32172L6.34934 0.719182C6.25895 0.625447 6.13481 0.571779 6.00459 0.570138C5.87128 0.570058 5.74358 0.623839 5.65048 0.719274L1.04673 5.32302C0.951536 5.41561 0.898208 5.54301 0.899069 5.67579C0.899931 5.80857 0.954909 5.93524 1.0513 6.02654Z" fill="#212125"/>
<path d="M5.64908 11.314C5.73947 11.4077 5.86361 11.4614 5.99383 11.463C6.12641 11.4642 6.2539 11.412 6.34765 11.3182C6.44141 11.2245 6.49357 11.097 6.49242 10.9644L6.49372 1.06859C6.50012 0.887995 6.40743 0.718333 6.25202 0.626165C6.09661 0.533997 5.90326 0.534022 5.74782 0.626232C5.59239 0.71844 5.49965 0.888127 5.506 1.06872L5.50004 10.9692C5.50378 11.099 5.55712 11.2223 5.64908 11.314Z" fill="#212125"/>
<path d="M0.701825 6.37601C1.08774 6.76193 1.71352 6.76185 2.09954 6.37583L6.00434 2.47103L9.90345 6.37014C10.2894 6.75606 10.9151 6.75598 11.3012 6.36996C11.6872 5.98394 11.6873 5.35816 11.3013 4.97224L6.69415 0.365049C6.51153 0.174725 6.25915 0.0671511 5.99534 0.0671855C5.73153 0.0672199 5.47912 0.174861 5.29644 0.365233L0.692692 4.96898C0.505677 5.15596 0.401366 5.41007 0.403082 5.67448C0.404798 5.9389 0.512398 6.19157 0.701825 6.37601Z" fill="#212125"/>
<path d="M5.29961 11.6634C5.48229 11.8503 5.73238 11.956 5.99377 11.9569C6.25729 11.9579 6.51035 11.8537 6.69672 11.6673C6.88308 11.4809 6.98732 11.2279 6.98628 10.9643L6.98758 1.06853C7.00038 0.707333 6.815 0.36801 6.50418 0.183674C6.19336 -0.000661848 5.80665 -0.000611366 5.49578 0.183807C5.18491 0.368225 4.99944 0.707597 5.01215 1.06879L5.00618 10.9693C5.00986 11.2301 5.11513 11.4791 5.29961 11.6634Z" fill="#212125"/>
</svg>
