<svg width="9" height="9" viewBox="0 0 9 9" fill="none" xmlns="http://www.w3.org/2000/svg">
<path d="M7.40044 7.43172C7.17304 7.43172 6.98869 7.24732 6.98869 7.01986V2.00615H1.98179C1.75439 2.00615 1.57004 1.82175 1.57004 1.59429C1.57004 1.36683 1.75439 1.18243 1.98179 1.18243H7.40593C7.51443 1.18046 7.6192 1.22198 7.6969 1.29775C7.7755 1.37626 7.81906 1.48319 7.81768 1.59429V7.01986C7.81922 7.13051 7.77557 7.23701 7.69682 7.31474C7.61808 7.39247 7.51104 7.43472 7.40044 7.43172Z" fill="#FDFCF8"/>
<path d="M1.57553 7.83809C1.46704 7.84006 1.36226 7.79853 1.28456 7.72277C1.20576 7.64533 1.16138 7.53947 1.16138 7.42897C1.16138 7.31848 1.20576 7.21262 1.28456 7.13518L7.11496 1.30324C7.21761 1.19305 7.3722 1.1477 7.51809 1.18496C7.66398 1.22223 7.77789 1.33618 7.81515 1.4821C7.85241 1.62803 7.80706 1.78266 7.6969 1.88534L1.8665 7.72277C1.78784 7.79703 1.6837 7.8383 1.57553 7.83809Z" fill="#FDFCF8"/>
<path d="M7.40044 7.84358C6.94563 7.84358 6.57694 7.47479 6.57694 7.01986V2.41801H1.98179C1.52699 2.41801 1.15829 2.04922 1.15829 1.59429C1.15829 1.13936 1.52699 0.770569 1.98179 0.770569H7.41142C7.63119 0.766035 7.84329 0.851363 7.99872 1.00683C8.15415 1.16231 8.23946 1.37447 8.23493 1.59429V7.01986C8.23495 7.24024 8.14668 7.45144 7.98986 7.60623C7.83304 7.76103 7.62075 7.84652 7.40044 7.84358Z" fill="#FDFCF8"/>
<path d="M1.57553 8.24995C1.35775 8.25243 1.14809 8.16736 0.993591 8.01381C0.837691 7.85915 0.75 7.64861 0.75 7.42897C0.75 7.20934 0.837691 6.9988 0.993591 6.84413L6.82399 1.01219C7.02929 0.791818 7.33847 0.701103 7.63024 0.775637C7.92202 0.850172 8.14986 1.07807 8.22437 1.36992C8.29888 1.66177 8.20819 1.97104 7.98788 2.17638L2.15747 8.01381C2.00163 8.16532 1.79285 8.25003 1.57553 8.24995Z" fill="#FDFCF8"/>
</svg>
