<svg width="20" height="20" viewBox="0 0 20 20" fill="none" xmlns="http://www.w3.org/2000/svg">
<path d="M9.95577 18.2478C9.63417 17.9262 9.63424 17.4048 9.95592 17.0831L17.0464 9.99262L9.96556 2.91179C9.64396 2.5902 9.64403 2.06871 9.96571 1.74703C10.2874 1.42535 10.8089 1.42528 11.1305 1.74688L18.8014 9.41777C18.9576 9.56841 19.047 9.77531 19.0498 9.99235C19.0499 10.2145 18.9603 10.4274 18.8012 10.5825L11.1283 18.2554C10.974 18.4141 10.7616 18.503 10.5403 18.5015C10.319 18.5001 10.1079 18.4085 9.95577 18.2478Z" fill="#FEFCF6"/>
<path d="M1.14341 10.5849C0.987187 10.4342 0.89774 10.2273 0.895005 10.0103C0.89308 9.78932 0.980017 9.57684 1.13628 9.42058C1.29254 9.26431 1.50503 9.17738 1.72598 9.1793L18.219 9.17713C18.52 9.16646 18.8028 9.32094 18.9564 9.57996C19.11 9.83898 19.11 10.1612 18.9563 10.4203C18.8026 10.6794 18.5198 10.8339 18.2188 10.8233L1.718 10.8333C1.50172 10.827 1.29608 10.7381 1.14341 10.5849Z" fill="#FEFCF6"/>
<path d="M9.37331 18.8303C8.73012 18.1871 8.73025 17.1441 9.37362 16.5008L15.8816 9.99277L9.3831 3.49425C8.7399 2.85106 8.74004 1.80809 9.38341 1.16473C10.0268 0.521362 11.0697 0.521224 11.7129 1.16442L19.3916 8.84307C19.7088 9.14746 19.8881 9.56809 19.888 10.0078C19.888 10.4475 19.7086 10.8681 19.3913 11.1726L11.7184 18.8455C11.4067 19.1572 10.9832 19.3311 10.5425 19.3282C10.1018 19.3253 9.68071 19.146 9.37331 18.8303Z" fill="#FEFCF6"/>
<path d="M0.560953 11.1673C0.249452 10.8628 0.0732601 10.446 0.0719053 10.0104C0.0701628 9.57118 0.243896 9.14941 0.554507 8.8388C0.865118 8.52819 1.28688 8.35446 1.72609 8.3562L18.2191 8.35403C18.8211 8.3327 19.3866 8.64166 19.6939 9.1597C20.0011 9.67774 20.001 10.3222 19.6937 10.8404C19.3863 11.3585 18.8207 11.6676 18.2187 11.6464L1.71789 11.6564C1.28323 11.6502 0.868166 11.4748 0.560953 11.1673Z" fill="#FEFCF6"/>
</svg>
