<svg width="10" height="10" viewBox="0 0 10 10" fill="none" xmlns="http://www.w3.org/2000/svg">
<path d="M1.48169 1.51947C1.48169 1.79235 1.70297 2.01357 1.97593 2.01357H7.99238V8.02185C7.99238 8.29473 8.21365 8.51595 8.48661 8.51595C8.75957 8.51595 8.98084 8.29473 8.98084 8.02185V1.51288C8.98321 1.38269 8.93338 1.25696 8.84246 1.16372C8.74825 1.0694 8.61992 1.01713 8.48661 1.01878H1.97593C1.84314 1.01694 1.71534 1.06931 1.62207 1.16381C1.52879 1.25831 1.47809 1.38675 1.48169 1.51947Z" fill="#212125"/>
<path d="M0.994052 8.50936C0.991685 8.63955 1.04152 8.76528 1.13244 8.85853C1.22536 8.95308 1.3524 9.00635 1.48499 9.00635C1.61758 9.00635 1.74462 8.95308 1.83754 8.85853L8.83587 1.86204C8.96809 1.73887 9.02252 1.55336 8.9778 1.37829C8.93308 1.20323 8.79634 1.06653 8.62123 1.02182C8.44612 0.977109 8.26056 1.03152 8.13735 1.16371L1.13244 8.1602C1.04332 8.2546 0.993797 8.37956 0.994052 8.50936Z" fill="#212125"/>
<path d="M0.987462 1.51947C0.987462 2.06524 1.43001 2.50767 1.97593 2.50767H7.49814V8.02185C7.49814 8.56762 7.9407 9.01005 8.48661 9.01005C9.03252 9.01005 9.47507 8.56762 9.47507 8.02185V1.50629C9.48051 1.24257 9.37812 0.988049 9.19155 0.801532C9.00499 0.615015 8.7504 0.51265 8.48661 0.518088H1.97593C1.71147 0.518065 1.45803 0.623985 1.27227 0.812169C1.08652 1.00035 0.983935 1.25511 0.987462 1.51947Z" fill="#212125"/>
<path d="M0.499819 8.50936C0.496838 8.7707 0.598926 9.02229 0.783179 9.20769C0.96878 9.39477 1.22143 9.5 1.48499 9.5C1.74855 9.5 2.0012 9.39477 2.1868 9.20769L9.18512 2.21121C9.44957 1.96486 9.55843 1.59384 9.46899 1.24371C9.37955 0.893577 9.10608 0.620173 8.75585 0.530756C8.40563 0.441339 8.03451 0.550168 7.78809 0.814549L0.783179 7.81103C0.601374 7.99804 0.499714 8.24858 0.499819 8.50936Z" fill="#212125"/>
</svg>
