<svg width="20" height="25" viewBox="0 0 20 25" fill="none" xmlns="http://www.w3.org/2000/svg">
<path d="M9.82153 5.3572C8.93857 5.3572 8.07543 5.61903 7.34128 6.10957C6.60712 6.60012 6.03492 7.29735 5.69702 8.1131C5.35913 8.92885 5.27072 9.82648 5.44298 10.6925C5.61523 11.5585 6.04042 12.3539 6.66477 12.9783C7.28912 13.6026 8.08458 14.0278 8.95058 14.2001C9.81658 14.3723 10.7142 14.2839 11.53 13.946C12.3457 13.6081 13.0429 13.0359 13.5335 12.3018C14.024 11.5676 14.2859 10.7045 14.2859 9.82153C14.2859 8.63751 13.8155 7.50199 12.9783 6.66477C12.1411 5.82754 11.0055 5.3572 9.82153 5.3572ZM9.82153 12.5001C9.29175 12.5001 8.77387 12.343 8.33338 12.0487C7.89288 11.7544 7.54956 11.336 7.34683 10.8466C7.14409 10.3571 7.09104 9.81856 7.1944 9.29896C7.29775 8.77936 7.55286 8.30208 7.92747 7.92747C8.30208 7.55286 8.77936 7.29775 9.29896 7.1944C9.81856 7.09104 10.3571 7.14409 10.8466 7.34682C11.336 7.54956 11.7544 7.89288 12.0487 8.33338C12.343 8.77387 12.5001 9.29175 12.5001 9.82153C12.5001 10.5319 12.2179 11.2132 11.7156 11.7156C11.2132 12.2179 10.5319 12.5001 9.82153 12.5001ZM9.82153 0C7.2176 0.00295397 4.72117 1.03867 2.87992 2.87992C1.03867 4.72117 0.00295397 7.2176 0 9.82153C0 13.326 1.61944 17.0403 4.68755 20.5638C6.06616 22.156 7.61778 23.5897 9.31371 24.8384C9.46384 24.9436 9.64269 25 9.82599 25C10.0093 25 10.1881 24.9436 10.3383 24.8384C12.0311 23.5892 13.5797 22.1555 14.9555 20.5638C18.0192 17.0403 19.6431 13.326 19.6431 9.82153C19.6401 7.2176 18.6044 4.72117 16.7631 2.87992C14.9219 1.03867 12.4255 0.00295397 9.82153 0ZM9.82153 22.9913C7.97664 21.5404 1.78573 16.2111 1.78573 9.82153C1.78573 7.6903 2.63236 5.64637 4.13936 4.13936C5.64637 2.63236 7.6903 1.78573 9.82153 1.78573C11.9528 1.78573 13.9967 2.63236 15.5037 4.13936C17.0107 5.64637 17.8573 7.6903 17.8573 9.82153C17.8573 16.2089 11.6664 21.5404 9.82153 22.9913Z" fill="white"/>
</svg>
