<svg width="60" height="60" viewBox="0 0 60 60" fill="none" xmlns="http://www.w3.org/2000/svg">
<path d="M0 0H60V60H0V0Z" fill="black" fill-opacity="0.01"/>
<path fill-rule="evenodd" clip-rule="evenodd" d="M23.5666 11.3947C14.1534 17.4401 8.92391 24.4762 7.8782 32.5034C6.25026 44.9997 17.4255 51.1164 23.0879 45.6206C28.7503 40.125 25.356 33.1492 21.2559 31.2425C17.1558 29.3356 14.6484 29.9997 15.0858 27.4517C15.5231 24.9036 21.3564 17.8389 26.4811 14.5487C26.8211 14.2596 26.9505 13.6986 26.6231 13.2731C26.4078 12.9931 25.9854 12.4442 25.356 11.6261C24.8056 10.9108 24.2784 10.9376 23.5666 11.3947Z" fill="white"/>
<path fill-rule="evenodd" clip-rule="evenodd" d="M48.3487 11.3947C38.9355 17.4401 33.706 24.4762 32.6603 32.5034C31.0324 44.9997 42.2077 51.1164 47.87 45.6206C53.5324 40.125 50.1382 33.1492 46.038 31.2425C41.9379 29.3356 39.4304 29.9997 39.8679 27.4517C40.3053 24.9036 46.1385 17.8389 51.2633 14.5487C51.6033 14.2596 51.7327 13.6986 51.4052 13.2731C51.1899 12.9931 50.7675 12.4442 50.1382 11.6261C49.5878 10.9108 49.0605 10.9376 48.3487 11.3947Z" fill="white"/>
</svg>
