<svg width="10" height="10" viewBox="0 0 10 10" fill="none" xmlns="http://www.w3.org/2000/svg">
<path d="M8.48053 8.51806C8.20765 8.51806 7.98643 8.29679 7.98643 8.02383V2.00738L1.97815 2.00738C1.70527 2.00738 1.48405 1.7861 1.48405 1.51315C1.48405 1.24019 1.70527 1.01892 1.97815 1.01892L8.48712 1.01892C8.61731 1.01655 8.74304 1.06638 8.83628 1.1573C8.9306 1.25151 8.98287 1.37983 8.98122 1.51315V8.02383C8.98306 8.15662 8.93069 8.28441 8.83619 8.37769C8.74169 8.47097 8.61325 8.52166 8.48053 8.51806Z" fill="#FFFFFD"/>
<path d="M1.49064 9.0057C1.36045 9.00807 1.23472 8.95824 1.14147 8.86732C1.04692 8.77439 0.993651 8.64736 0.993651 8.51477C0.993651 8.38217 1.04692 8.25514 1.14147 8.16222L8.13796 1.16389C8.26113 1.03166 8.44664 0.977236 8.62171 1.02196C8.79677 1.06668 8.93347 1.20341 8.97818 1.37853C9.02289 1.55364 8.96848 1.7392 8.83629 1.8624L1.8398 8.86732C1.7454 8.95643 1.62044 9.00596 1.49064 9.0057Z" fill="#FFFFFD"/>
<path d="M8.48053 9.01229C7.93476 9.01229 7.49233 8.56974 7.49233 8.02383V2.50161L1.97815 2.50161C1.43238 2.50161 0.98995 2.05906 0.98995 1.51315C0.98995 0.967234 1.43238 0.524683 1.97815 0.524683L8.49371 0.524683C8.75743 0.519243 9.01195 0.621636 9.19847 0.808201C9.38498 0.994767 9.48735 1.24936 9.48191 1.51315V8.02383C9.48193 8.28829 9.37601 8.54172 9.18783 8.72748C8.99965 8.91324 8.74489 9.01582 8.48053 9.01229Z" fill="#FFFFFD"/>
<path d="M1.49064 9.49994C1.2293 9.50292 0.977711 9.40083 0.792309 9.21658C0.605229 9.03098 0.5 8.77833 0.5 8.51477C0.5 8.2512 0.605229 7.99856 0.792309 7.81296L7.78879 0.814633C8.03514 0.550181 8.40616 0.441324 8.75629 0.530765C9.10642 0.620206 9.37983 0.89368 9.46924 1.2439C9.55866 1.59413 9.44983 1.96524 9.18545 2.21166L2.18897 9.21658C2.00196 9.39838 1.75142 9.50004 1.49064 9.49994Z" fill="#FFFFFD"/>
</svg>
