<svg width="12" height="10" viewBox="0 0 12 10" fill="none" xmlns="http://www.w3.org/2000/svg">
<path d="M11.6475 0.807513C11.8643 1.01243 11.9908 1.29503 11.9992 1.5932C12.0076 1.89136 11.8973 2.18067 11.6925 2.39751L5.31751 9.14751C5.21419 9.25672 5.09003 9.3441 4.95237 9.40451C4.81471 9.46492 4.66633 9.49712 4.51601 9.49922C4.36569 9.50132 4.21648 9.47326 4.07719 9.41672C3.93789 9.36018 3.81134 9.27629 3.70501 9.17001L0.330014 5.79501C0.131294 5.58175 0.0231091 5.29968 0.0282514 5.00823C0.0333938 4.71678 0.151462 4.4387 0.357581 4.23258C0.563701 4.02646 0.841778 3.90839 1.13323 3.90325C1.42468 3.89811 1.70675 4.00629 1.92001 4.20501L4.47751 6.76101L10.0575 0.852513C10.2624 0.635759 10.545 0.509256 10.8432 0.500817C11.1414 0.492378 11.4307 0.602696 11.6475 0.807513Z" fill="#FFFBFB"/>
</svg>
