<svg width="16" height="16" viewBox="0 0 16 16" fill="none" xmlns="http://www.w3.org/2000/svg">
<path d="M7.96462 14.5984C7.70734 14.3411 7.70739 13.9239 7.96474 13.6666L13.6371 7.99422L7.97245 2.32956C7.71517 2.07228 7.71522 1.65509 7.97257 1.39775C8.22991 1.1404 8.6471 1.14035 8.90438 1.39762L15.0411 7.53434C15.1661 7.65485 15.2376 7.82037 15.2398 7.994C15.2399 8.17175 15.1682 8.34201 15.041 8.46615L8.90264 14.6045C8.77918 14.7314 8.60932 14.8025 8.43228 14.8014C8.25524 14.8002 8.08635 14.7269 7.96462 14.5984Z" fill="#FDFCF8"/>
<path d="M0.914729 8.46801C0.78975 8.34749 0.718192 8.18197 0.716004 8.00834C0.714464 7.83158 0.784014 7.66159 0.909024 7.53658C1.03404 7.41157 1.20402 7.34202 1.38078 7.34356L14.5752 7.34182C14.816 7.33329 15.0422 7.45688 15.1651 7.66409C15.288 7.87131 15.288 8.12911 15.165 8.33636C15.0421 8.54361 14.8158 8.66725 14.575 8.65878L1.3744 8.66673C1.20138 8.66175 1.03687 8.59063 0.914729 8.46801Z" fill="#FDFCF8"/>
<path d="M7.49865 15.0644C6.98409 14.5498 6.9842 13.7154 7.4989 13.2007L12.7053 7.99434L7.50648 2.79552C6.99192 2.28097 6.99203 1.4466 7.50672 0.931904C8.02142 0.417212 8.85579 0.417102 9.37034 0.931658L15.5133 7.07458C15.767 7.31809 15.9105 7.65459 15.9104 8.00634C15.9104 8.35808 15.7669 8.69463 15.513 8.9382L9.37469 15.0765C9.12538 15.3259 8.78658 15.465 8.43402 15.4627C8.08147 15.4604 7.74457 15.3169 7.49865 15.0644Z" fill="#FDFCF8"/>
<path d="M0.448763 8.93398C0.199562 8.6904 0.0586085 8.35694 0.0575247 8.00843C0.0561301 7.65706 0.195117 7.31965 0.443606 7.07116C0.692094 6.82268 1.0295 6.68369 1.38087 6.68508L14.5753 6.68335C15.0569 6.66628 15.5093 6.91345 15.7551 7.32788C16.0009 7.74232 16.0008 8.25792 15.7549 8.67241C15.509 9.08691 15.0565 9.3342 14.575 9.31726L1.37431 9.32521C1.02659 9.32031 0.694533 9.17994 0.448763 8.93398Z" fill="#FDFCF8"/>
</svg>
