<svg width="16" height="16" viewBox="0 0 16 16" fill="none" xmlns="http://www.w3.org/2000/svg">
<path d="M8.03538 14.5984C8.29266 14.3411 8.29261 13.9239 8.03526 13.6666L2.3629 7.99421L8.02755 2.32956C8.28483 2.07228 8.28478 1.65509 8.02743 1.39775C7.77009 1.1404 7.3529 1.14035 7.09562 1.39762L0.95891 7.53434C0.83393 7.65485 0.762371 7.82037 0.760184 7.994C0.760077 8.17175 0.831786 8.34201 0.959032 8.46615L7.09736 14.6045C7.22082 14.7314 7.39069 14.8025 7.56772 14.8014C7.74476 14.8002 7.91366 14.7269 8.03538 14.5984Z" fill="#FDFCF8"/>
<path d="M15.0853 8.46801C15.2103 8.34749 15.2818 8.18197 15.284 8.00834C15.2855 7.83158 15.216 7.66159 15.091 7.53658C14.966 7.41157 14.796 7.34202 14.6192 7.34356L1.42479 7.34182C1.18399 7.33329 0.957778 7.45688 0.834887 7.66409C0.711996 7.87131 0.71203 8.12911 0.834976 8.33636C0.957921 8.54361 1.18417 8.66725 1.42496 8.65878L14.6256 8.66673C14.7986 8.66175 14.9631 8.59063 15.0853 8.46801Z" fill="#FDFCF8"/>
<path d="M8.50135 15.0644C9.01591 14.5498 9.0158 13.7154 8.5011 13.2007L3.29471 7.99434L8.49352 2.79552C9.00808 2.28097 9.00797 1.4466 8.49328 0.931904C7.97858 0.417212 7.14421 0.417102 6.62966 0.931658L0.486732 7.07458C0.232967 7.31809 0.089535 7.65459 0.0895811 8.00634C0.0896273 8.35808 0.233148 8.69463 0.486977 8.9382L6.62531 15.0765C6.87462 15.3259 7.21342 15.465 7.56598 15.4627C7.91853 15.4604 8.25543 15.3169 8.50135 15.0644Z" fill="#FDFCF8"/>
<path d="M15.5512 8.93398C15.8004 8.6904 15.9414 8.35694 15.9425 8.00843C15.9439 7.65706 15.8049 7.31965 15.5564 7.07116C15.3079 6.82268 14.9705 6.68369 14.6191 6.68508L1.4247 6.68335C0.943111 6.66628 0.49068 6.91345 0.244899 7.32788C-0.000882071 7.74231 -0.000814921 8.25792 0.245076 8.67241C0.490967 9.08691 0.943462 9.3342 1.42505 9.31726L14.6257 9.32521C14.9734 9.32031 15.3055 9.17994 15.5512 8.93398Z" fill="#FDFCF8"/>
</svg>
